<?xml version="1.0" encoding="UTF-8" standalone="no"?>
<!-- Created with Inkscape (http://www.inkscape.org/) -->

<svg
   xmlns:dc="http://purl.org/dc/elements/1.1/"
   xmlns:cc="http://creativecommons.org/ns#"
   xmlns:rdf="http://www.w3.org/1999/02/22-rdf-syntax-ns#"
   xmlns:svg="http://www.w3.org/2000/svg"
   xmlns="http://www.w3.org/2000/svg"
   xmlns:sodipodi="http://sodipodi.sourceforge.net/DTD/sodipodi-0.dtd"
   xmlns:inkscape="http://www.inkscape.org/namespaces/inkscape"
   width="1200"
   height="800"
   id="svg2"
   version="1.1"
   inkscape:version="0.48.5 r10040"
   sodipodi:docname="New document 1">
  <defs
     id="defs4" />
  <sodipodi:namedview
     id="base"
     pagecolor="#ffffff"
     bordercolor="#666666"
     borderopacity="1.0"
     inkscape:pageopacity="0.0"
     inkscape:pageshadow="2"
     inkscape:zoom="0.7"
     inkscape:cx="516.68272"
     inkscape:cy="289.19743"
     inkscape:document-units="px"
     inkscape:current-layer="layer1"
     showgrid="false"
     width="1200px"
     inkscape:snap-bbox="true"
     inkscape:object-paths="true"
     inkscape:snap-intersection-paths="true"
     inkscape:object-nodes="true"
     inkscape:snap-smooth-nodes="true"
     inkscape:snap-midpoints="true"
     inkscape:window-width="956"
     inkscape:window-height="1018"
     inkscape:window-x="0"
     inkscape:window-y="0"
     inkscape:window-maximized="0" />
  <metadata
     id="metadata7">
    <rdf:RDF>
      <cc:Work
         rdf:about="">
        <dc:format>image/svg+xml</dc:format>
        <dc:type
           rdf:resource="http://purl.org/dc/dcmitype/StillImage" />
        <dc:title></dc:title>
      </cc:Work>
    </rdf:RDF>
  </metadata>
  <g
     inkscape:label="Layer 1"
     inkscape:groupmode="layer"
     id="layer1"
     transform="translate(0,-252.36218)">
    <rect
       style="fill:none;fill-opacity:1;fill-rule:nonzero;stroke:#000000;stroke-width:3;stroke-linecap:round;stroke-linejoin:round;stroke-miterlimit:4;stroke-opacity:1;stroke-dasharray:none;stroke-dashoffset:0"
       id="rect2985"
       width="395.05219"
       height="795.05219"
       x="2.4739058"
       y="254.83607" />
    <rect
       style="fill:none;fill-opacity:1;fill-rule:nonzero;stroke:#000000;stroke-width:3;stroke-linecap:round;stroke-linejoin:round;stroke-miterlimit:4;stroke-opacity:1;stroke-dasharray:none;stroke-dashoffset:0"
       id="rect2985-5"
       width="395.05219"
       height="795.05219"
       x="402.47391"
       y="254.83609" />
    <rect
       style="fill:none;fill-opacity:1;fill-rule:nonzero;stroke:#000000;stroke-width:3;stroke-linecap:round;stroke-linejoin:round;stroke-miterlimit:4;stroke-opacity:1;stroke-dasharray:none;stroke-dashoffset:0"
       id="rect2985-1"
       width="395.05219"
       height="795.05219"
       x="802.47388"
       y="254.83609" />
    <path
       style="fill:none;stroke:#000000;stroke-width:3;stroke-linecap:butt;stroke-linejoin:miter;stroke-opacity:1;stroke-miterlimit:4;stroke-dasharray:none"
       d="m 193.94929,52.487117 c 0,0 -113.137086,16.162441 -123.238612,101.015253 C 60.609153,238.35519 12.121831,331.28922 24.243661,361.5938 36.365492,391.89837 129.29953,341.39074 147.48227,391.89837 165.66502,442.406 157.5838,448.46691 96.974644,525.23851 36.365492,602.0101 6.0609153,680.802 64.649763,705.04566 123.23861,729.28932 183.84776,761.6142 218.19295,757.57359 252.53814,753.53298 309.10668,739.39085 343.45187,694.94414 377.79705,650.49742 371.73614,593.92888 327.28942,509.07607 282.84271,424.22325 402.04071,197.94908 365.67522,127.23841 329.30973,56.527727 193.94929,52.487117 193.94929,52.487117 z"
       id="path3798"
       inkscape:connector-curvature="0"
       transform="translate(0,252.36218)" />
    <path
       sodipodi:type="arc"
       style="fill:#ff0000;stroke:#000000;stroke-width:3;stroke-linecap:round;stroke-linejoin:round;stroke-miterlimit:4;stroke-opacity:1;stroke-dasharray:none;stroke-dashoffset:0"
       id="path3800"
       sodipodi:cx="209.10158"
       sodipodi:cy="140.37039"
       sodipodi:rx="7.0710678"
       sodipodi:ry="7.0710678"
       d="m 216.17265,140.37039 a 7.0710678,7.0710678 0 1 1 -14.14214,0 7.0710678,7.0710678 0 1 1 14.14214,0 z"
       transform="translate(0,252.36218)" />
    <path
       transform="translate(-3.0304586,754.40799)"
       sodipodi:type="arc"
       style="fill:#ff0000;stroke:#000000;stroke-width:3;stroke-linecap:round;stroke-linejoin:round;stroke-miterlimit:4;stroke-opacity:1;stroke-dasharray:none;stroke-dashoffset:0"
       id="path3800-4"
       sodipodi:cx="209.10158"
       sodipodi:cy="140.37039"
       sodipodi:rx="7.0710678"
       sodipodi:ry="7.0710678"
       d="m 216.17265,140.37039 a 7.0710678,7.0710678 0 1 1 -14.14214,0 7.0710678,7.0710678 0 1 1 14.14214,0 z" />
    <path
       style="fill:none;stroke:#000000;stroke-width:3;stroke-linecap:butt;stroke-linejoin:miter;stroke-miterlimit:4;stroke-opacity:1;stroke-dasharray:none"
       d="m 593.1375,305.43098 c 0,0 -113.13709,16.16244 -123.23862,101.01525 -10.10152,84.85282 -58.58885,177.78685 -46.46702,208.09143 12.12183,30.30457 105.05588,-20.20306 123.23862,30.30457 18.18275,50.50763 10.10153,56.56854 -50.50763,133.34014 -60.60916,76.77159 -90.91373,155.56349 -32.32488,179.80715 58.58885,24.24366 119.198,56.56858 153.54319,52.52788 34.34519,-4.0406 90.91373,-18.18269 125.25892,-62.6294 34.34518,-44.44672 28.28427,-101.01526 -16.16245,-185.86807 -44.44671,-84.85282 74.75129,-311.12699 38.3858,-381.83766 C 728.49794,309.47159 593.1375,305.43098 593.1375,305.43098 z"
       id="path3798-6"
       inkscape:connector-curvature="0" />
    <path
       style="fill:none;stroke:#000000;stroke-width:3;stroke-linecap:butt;stroke-linejoin:miter;stroke-opacity:1;stroke-miterlimit:4;stroke-dasharray:none"
       d="m 996.5027,305.68708 c 0,0 -113.13708,16.16244 -123.2386,101.01525 -10.10153,84.85282 -58.58885,177.78685 -46.46702,208.09143 12.12183,30.30457 105.05587,-20.20306 123.23861,30.30457 18.18271,50.50763 10.10151,56.56854 -50.50763,133.34014 -60.60915,76.77161 -90.91373,155.56351 -32.32488,179.80711 58.58885,24.2437 119.19802,56.56862 153.54322,52.52802 34.3452,-4.0406 90.9137,-18.18282 125.2589,-62.62952 34.3452,-44.4467 28.2843,-101.0152 -16.1625,-185.86805 -44.4467,-84.85282 74.7513,-311.12699 38.3858,-381.83766 -36.3654,-70.71068 -171.7259,-74.75129 -171.7259,-74.75129 z"
       id="path3798-1"
       inkscape:connector-curvature="0" />
    <path
       style="fill:none;stroke:#000000;stroke-width:1px;stroke-linecap:butt;stroke-linejoin:miter;stroke-opacity:1"
       d="m 446.65183,252.16286 c 0,0 21.9196,57.83714 110.49103,63.55143 88.57143,5.71428 190.44295,-21.31359 190.44295,-21.31359"
       id="path3845"
       inkscape:connector-curvature="0"
       transform="translate(0,252.36218)" />
    <path
       style="fill:none;stroke:#000000;stroke-width:1px;stroke-linecap:butt;stroke-linejoin:miter;stroke-opacity:1"
       d="m 496.16285,525.82019 c 0,0 55.26572,-85.82019 123.83715,-44.39162 68.57143,41.42857 106.47763,28.22918 106.47763,28.22918"
       id="path3847"
       inkscape:connector-curvature="0"
       transform="translate(0,252.36218)" />
    <path
       style="fill:#ff0000;fill-opacity:1;fill-rule:nonzero;stroke:#000000;stroke-width:4.28571415;stroke-linecap:round;stroke-linejoin:round;stroke-miterlimit:4;stroke-opacity:1;stroke-dasharray:none;stroke-dashoffset:0"
       d="m 586.48728,752.18515 c -17.70114,-4.59025 -34.62825,-11.10629 -82.85715,-31.89563 -52.81328,-22.76546 -57.98572,-26.11753 -64.9117,-42.06696 -11.0657,-25.48253 2.46473,-69.52889 36.77192,-119.7057 13.14775,-19.22955 35.18671,-48.05783 42.964,-56.19947 17.32517,-18.1368 43.09465,-30.91651 62.31864,-30.90532 12.88167,0.007 24.89602,3.8938 43.57143,14.09408 34.84069,19.02957 57.51959,26.2023 83.57143,26.43139 l 17.14286,0.15075 8.14698,17.14286 c 32.14226,67.63364 37.32313,112.34378 17.29876,149.28571 -19.81716,36.55963 -61.20376,63.37746 -114.6001,74.25894 -18.56736,3.78379 -33.2236,3.60862 -49.41707,-0.59065 z"
       id="path3849"
       inkscape:connector-curvature="0"
       transform="translate(0,252.36218)" />
    <path
       style="fill:#ff0000;fill-opacity:1;fill-rule:nonzero;stroke:#000000;stroke-width:4.28571415;stroke-linecap:round;stroke-linejoin:round;stroke-miterlimit:4;stroke-opacity:1;stroke-dasharray:none;stroke-dashoffset:0"
       d="m 558.63013,314.15987 c -37.89936,-2.36394 -67.382,-13.70007 -89.00085,-34.22098 -6.44239,-6.1152 -13.78313,-14.56183 -16.31275,-18.77029 l -4.59932,-7.65174 7.01467,-24.43379 c 6.25535,-21.78885 10.55468,-41.21402 17.825,-80.53658 3.33638,-18.04532 11.46252,-33.39125 24.95407,-47.12487 20.09287,-20.453397 42.533,-32.564845 78.5189,-42.378445 12.07443,-3.292777 15.35316,-3.635107 27.00277,-2.819345 16.2863,1.140443 42.05087,5.466138 60.8319,10.213259 60.81867,15.372607 99.10319,46.347921 103.76339,83.953091 2.79597,22.56187 -2.24189,58.75147 -15.87436,114.03401 l -7.26934,29.47876 -20.92705,4.4284 c -63.6764,13.47467 -119.0211,18.75425 -165.92703,15.82852 z"
       id="path3851"
       inkscape:connector-curvature="0"
       transform="translate(0,252.36218)" />
    <path
       style="fill:#ff0000;fill-opacity:1;fill-rule:nonzero;stroke:#000000;stroke-width:4.28571415;stroke-linecap:round;stroke-linejoin:round;stroke-miterlimit:4;stroke-opacity:1;stroke-dasharray:none;stroke-dashoffset:0"
       d="m 1001.4873,754.97773 c -20.00297,-3.392 -36.23821,-9.3039 -94.28574,-34.33317 -23.17857,-9.99427 -45.14652,-20.18657 -48.81767,-22.64956 -8.61556,-5.78018 -14.68933,-13.53925 -17.70445,-22.61693 -3.76829,-11.34528 -2.2923,-32.45654 3.45767,-49.4554 11.67496,-34.51515 29.04509,-62.43681 76.59328,-123.1201 41.61616,-53.11254 45.70001,-65.27785 34.24602,-102.01482 -4.71552,-15.1243 -7.97285,-20.1984 -16.75568,-26.10113 -9.60239,-6.45355 -19.52962,-8.12839 -41.73345,-7.04097 -57.07533,2.79524 -55.62343,2.78951 -60.55521,0.23918 -6.72888,-3.47963 -9.26642,-10.47847 -8.31704,-22.9394 0.98217,-12.89148 5.53003,-30.5894 18.93688,-73.69263 13.93404,-44.79815 22.50729,-78.00232 27.0795,-104.8788 2.00499,-11.78571 4.93994,-25.36628 6.52213,-30.17903 8.41522,-25.59769 30.6303,-47.937087 62.95969,-63.312028 22.747,-10.817831 42.00952,-16.257905 57.65977,-16.28413 33.2125,-0.05565 84.4158,12.068123 114.0359,27.001115 16.8535,8.49664 24.1856,13.6613 35.2498,24.829603 16.8157,16.97388 22.809,32.0135 22.8062,57.23019 0,25.4556 -4.965,51.40001 -25.6836,134.28571 -17.3171,69.2777 -20.2275,81.98976 -24.2031,105.71429 -4.5989,27.44363 -5.8726,46.17298 -4.4694,65.71927 1.502,20.92257 3.9265,29.05794 15.6922,52.65433 11.2507,22.56375 22.1541,50.85463 26.8382,69.63694 3.3399,13.39244 3.8765,18.44746 3.851,36.27517 -0.027,18.54914 -0.4262,21.90884 -3.8226,32.14286 -5.546,16.71068 -12.9588,28.33876 -27.4375,43.03943 -23.8851,24.25133 -54.5806,39.89567 -93.2156,47.50843 -20.1575,3.97188 -26.9159,4.37842 -38.9272,2.34158 l 0,0 z"
       id="path3853"
       inkscape:connector-curvature="0"
       transform="translate(0,252.36218)" />
  </g>
</svg>
